<svg xmlns="http://www.w3.org/2000/svg" viewBox="0 0 192 192" width="192" height="192">
  <defs>
    <linearGradient id="bg" x1="0%" y1="0%" x2="100%" y2="100%">
      <stop offset="0%" style="stop-color:#0d9488"/>
      <stop offset="100%" style="stop-color:#0891b2"/>
    </linearGradient>
  </defs>
  <rect width="192" height="192" rx="40" fill="url(#bg)"/>
  <path d="M96 36c-33.14 0-60 26.86-60 60s26.86 60 60 60 60-26.86 60-60-26.86-60-60-60zm0 10c27.61 0 50 22.39 50 50s-22.39 50-50 50-50-22.39-50-50 22.39-50 50-50z" fill="white" opacity="0.3"/>
  <path d="M108 86h-8V70a4 4 0 0 0-8 0v16H76a4 4 0 0 0 0 8h16v16a4 4 0 0 0 8 0V94h16a4 4 0 0 0 0-8h-8z" fill="white"/>
  <text x="96" y="150" text-anchor="middle" fill="white" font-family="Arial,sans-serif" font-size="18" font-weight="bold">MedConnect</text>
</svg>
